<svg xmlns="http://www.w3.org/2000/svg" xmlns:xlink="http://www.w3.org/1999/xlink" width="284" zoomAndPan="magnify" viewBox="0 0 212.87999 122.249994" height="163" preserveAspectRatio="xMidYMid meet" version="1.0"><defs><g/><clipPath id="936d49c74d"><path d="M 49.34375 0 L 152.070312 0 L 152.070312 67.832031 L 49.34375 67.832031 Z M 49.34375 0 " clip-rule="nonzero"/></clipPath><clipPath id="7f42293e75"><path d="M 141.835938 53.246094 C 142.640625 52.75 143.390625 52.21875 144.078125 51.625 C 144.761719 51.023438 145.390625 50.386719 145.945312 49.710938 C 147.929688 47.285156 149.015625 43.765625 148.269531 40.667969 C 148.097656 39.925781 147.824219 39.210938 147.457031 38.546875 C 147.09375 37.878906 146.660156 37.25 146.136719 36.691406 C 144.082031 34.40625 141.003906 33.109375 137.839844 32.898438 C 134.660156 32.640625 131.378906 33.371094 128.332031 34.707031 C 127.941406 34.855469 127.570312 35.054688 127.191406 35.230469 C 127.015625 35.316406 126.785156 35.421875 126.652344 35.492188 L 126.039062 35.816406 C 125.640625 36.035156 125.328125 36.214844 124.949219 36.4375 C 124.578125 36.65625 124.214844 36.878906 123.855469 37.109375 C 122.40625 38.03125 121.019531 39.0625 119.652344 40.152344 C 116.925781 42.335938 114.371094 44.828125 111.800781 47.417969 C 109.222656 50 106.640625 52.699219 103.835938 55.324219 C 101.019531 57.929688 97.957031 60.464844 94.464844 62.585938 C 90.992188 64.71875 87.027344 66.324219 82.910156 67.144531 C 80.847656 67.550781 78.757812 67.78125 76.683594 67.820312 L 76.292969 67.828125 L 76.003906 67.832031 L 75.136719 67.816406 C 74.933594 67.816406 74.601562 67.792969 74.320312 67.773438 C 74.03125 67.753906 73.726562 67.742188 73.453125 67.714844 C 72.371094 67.601562 71.289062 67.457031 70.222656 67.21875 C 65.953125 66.304688 61.871094 64.359375 58.53125 61.492188 C 55.183594 58.648438 52.5625 54.929688 51.035156 50.804688 C 50.253906 48.753906 49.777344 46.59375 49.550781 44.429688 L 49.496094 43.917969 L 49.476562 43.574219 L 49.433594 42.882812 L 49.425781 42.710938 L 49.417969 42.492188 L 49.414062 42.054688 L 49.40625 41.175781 C 49.4375 40.082031 49.511719 38.996094 49.671875 37.914062 C 49.984375 35.757812 50.546875 33.628906 51.390625 31.617188 C 52.242188 29.609375 53.335938 27.714844 54.640625 25.976562 C 55.945312 24.242188 57.472656 22.6875 59.15625 21.328125 C 60.84375 19.972656 62.710938 18.859375 64.675781 17.96875 C 66.640625 17.078125 68.714844 16.445312 70.832031 16.082031 C 71.359375 15.984375 71.890625 15.910156 72.421875 15.859375 C 72.953125 15.792969 73.488281 15.769531 74.023438 15.742188 C 74.554688 15.703125 75.089844 15.726562 75.621094 15.71875 L 75.914062 15.722656 L 76.085938 15.730469 L 76.433594 15.753906 L 77.125 15.792969 L 74.007812 17.664062 C 75.375 15.109375 77.046875 12.726562 79.007812 10.621094 C 80.964844 8.515625 83.171875 6.65625 85.582031 5.125 C 87.996094 3.597656 90.589844 2.386719 93.285156 1.519531 C 95.980469 0.65625 98.78125 0.179688 101.574219 0.0390625 C 102.96875 -0.0234375 104.367188 -0.0117188 105.75 0.125 L 106.734375 0.214844 L 107.792969 0.359375 C 108.507812 0.445312 109.183594 0.585938 109.859375 0.726562 C 111.210938 1.007812 112.535156 1.402344 113.828125 1.855469 C 114.476562 2.074219 115.105469 2.355469 115.738281 2.601562 C 116.367188 2.875 116.976562 3.183594 117.585938 3.480469 C 118.179688 3.8125 118.785156 4.125 119.363281 4.480469 C 119.929688 4.851562 120.519531 5.179688 121.0625 5.585938 C 121.609375 5.980469 122.167969 6.355469 122.679688 6.789062 L 123.464844 7.417969 C 123.722656 7.632812 123.964844 7.863281 124.214844 8.085938 C 124.71875 8.527344 125.183594 9.003906 125.644531 9.488281 C 126.117188 9.953125 126.539062 10.472656 126.972656 10.96875 C 127.414062 11.460938 127.792969 12.007812 128.199219 12.523438 C 128.585938 13.054688 128.9375 13.613281 129.304688 14.152344 C 128.398438 13.207031 127.472656 12.289062 126.484375 11.449219 C 125.984375 11.035156 125.5 10.609375 124.972656 10.234375 L 124.199219 9.660156 C 123.9375 9.472656 123.660156 9.304688 123.398438 9.125 C 123.128906 8.949219 122.871094 8.761719 122.597656 8.59375 L 121.773438 8.101562 C 121.234375 7.761719 120.660156 7.484375 120.097656 7.1875 C 119.542969 6.882812 118.945312 6.65625 118.378906 6.386719 C 117.796875 6.132812 117.199219 5.925781 116.617188 5.695312 L 114.820312 5.125 C 114.210938 4.976562 113.617188 4.789062 113.003906 4.664062 C 111.785156 4.398438 110.558594 4.195312 109.324219 4.089844 C 108.707031 4.03125 108.09375 3.972656 107.5 3.96875 L 106.609375 3.941406 L 105.632812 3.960938 C 104.402344 3.964844 103.183594 4.109375 101.976562 4.28125 C 99.566406 4.636719 97.21875 5.292969 95.007812 6.230469 C 92.792969 7.15625 90.707031 8.363281 88.816406 9.796875 C 86.914062 11.21875 85.210938 12.882812 83.742188 14.71875 C 82.28125 16.554688 81.027344 18.546875 80.0625 20.664062 L 79.210938 22.53125 L 76.945312 22.535156 L 75.730469 22.535156 C 75.898438 22.539062 75.753906 22.539062 75.785156 22.539062 L 75.746094 22.542969 L 75.671875 22.546875 C 75.28125 22.582031 74.886719 22.578125 74.5 22.632812 C 74.109375 22.679688 73.71875 22.71875 73.335938 22.792969 C 72.949219 22.851562 72.566406 22.929688 72.1875 23.019531 C 70.667969 23.351562 69.199219 23.878906 67.824219 24.585938 C 65.066406 25.984375 62.6875 28.074219 60.921875 30.566406 C 60.050781 31.820312 59.332031 33.171875 58.785156 34.585938 C 58.257812 36.007812 57.878906 37.480469 57.699219 38.980469 C 57.601562 39.730469 57.570312 40.492188 57.5625 41.246094 L 57.578125 41.75 L 57.582031 42.003906 L 57.585938 42.132812 L 57.597656 42.308594 L 57.652344 43 L 57.679688 43.34375 C 57.691406 43.457031 57.671875 43.238281 57.675781 43.273438 L 57.679688 43.308594 L 57.691406 43.378906 L 57.710938 43.519531 C 57.898438 45.027344 58.261719 46.496094 58.800781 47.894531 C 59.855469 50.699219 61.648438 53.207031 63.953125 55.136719 C 66.242188 57.078125 69.019531 58.460938 71.988281 59.109375 C 72.726562 59.28125 73.480469 59.382812 74.238281 59.46875 C 74.421875 59.488281 74.582031 59.496094 74.757812 59.511719 C 74.9375 59.523438 75.066406 59.542969 75.324219 59.546875 L 76.019531 59.5625 L 76.191406 59.566406 C 76.019531 59.566406 76.167969 59.566406 76.136719 59.566406 L 76.175781 59.566406 L 76.25 59.5625 L 76.554688 59.5625 C 78.183594 59.558594 79.789062 59.410156 81.367188 59.132812 C 84.527344 58.574219 87.542969 57.394531 90.4375 55.761719 C 93.332031 54.128906 96.078125 52.019531 98.765625 49.691406 C 101.46875 47.375 104.117188 44.839844 106.878906 42.304688 C 109.648438 39.777344 112.550781 37.257812 115.730469 34.980469 C 117.320312 33.839844 118.996094 32.785156 120.738281 31.832031 C 121.171875 31.589844 121.613281 31.359375 122.058594 31.136719 C 122.492188 30.917969 123 30.675781 123.429688 30.476562 L 124.0625 30.195312 C 124.347656 30.066406 124.546875 29.992188 124.792969 29.890625 C 125.265625 29.703125 125.722656 29.496094 126.210938 29.335938 C 130.023438 27.945312 134.25 27.277344 138.441406 27.90625 C 142.605469 28.5 146.730469 30.585938 149.378906 34.058594 C 150.042969 34.917969 150.589844 35.871094 151.015625 36.875 C 151.453125 37.871094 151.753906 38.933594 151.898438 40.011719 C 152.054688 41.085938 152.074219 42.183594 151.925781 43.25 C 151.886719 43.757812 151.726562 44.378906 151.609375 44.878906 L 151.402344 45.542969 L 151.328125 45.777344 L 151.246094 45.960938 L 151.078125 46.324219 C 150.15625 48.265625 148.703125 49.804688 147.101562 50.957031 C 146.300781 51.535156 145.445312 52.015625 144.554688 52.390625 C 143.671875 52.769531 142.757812 53.070312 141.835938 53.246094 Z M 141.835938 53.246094 " clip-rule="nonzero"/></clipPath><clipPath id="a56b2a48f7"><path d="M 141.835938 53.246094 C 142.640625 52.75 143.390625 52.21875 144.078125 51.625 C 144.761719 51.023438 145.390625 50.386719 145.945312 49.710938 C 147.929688 47.285156 149.015625 43.765625 148.269531 40.667969 C 148.097656 39.925781 147.824219 39.210938 147.457031 38.546875 C 147.09375 37.878906 146.660156 37.25 146.136719 36.691406 C 144.082031 34.40625 141.003906 33.109375 137.839844 32.898438 C 134.660156 32.640625 131.378906 33.371094 128.332031 34.707031 C 127.941406 34.855469 127.570312 35.054688 127.191406 35.230469 C 127.015625 35.316406 126.785156 35.421875 126.652344 35.492188 L 126.039062 35.816406 C 125.640625 36.035156 125.328125 36.214844 124.949219 36.4375 C 124.578125 36.65625 124.214844 36.878906 123.855469 37.109375 C 122.40625 38.03125 121.019531 39.0625 119.652344 40.152344 C 116.925781 42.335938 114.371094 44.828125 111.800781 47.417969 C 109.222656 50 106.640625 52.699219 103.835938 55.324219 C 101.019531 57.929688 97.957031 60.464844 94.464844 62.585938 C 90.992188 64.71875 87.027344 66.324219 82.910156 67.144531 C 80.847656 67.550781 78.757812 67.78125 76.683594 67.820312 L 76.292969 67.828125 L 76.003906 67.832031 L 75.136719 67.816406 C 74.933594 67.816406 74.601562 67.792969 74.320312 67.773438 C 74.03125 67.753906 73.726562 67.742188 73.453125 67.714844 C 72.371094 67.601562 71.289062 67.457031 70.222656 67.21875 C 65.953125 66.304688 61.871094 64.359375 58.53125 61.492188 C 55.183594 58.648438 52.5625 54.929688 51.035156 50.804688 C 50.253906 48.753906 49.777344 46.59375 49.550781 44.429688 L 49.496094 43.917969 L 49.476562 43.574219 L 49.433594 42.882812 L 49.425781 42.710938 L 49.417969 42.492188 L 49.414062 42.054688 L 49.40625 41.175781 C 49.4375 40.082031 49.511719 38.996094 49.671875 37.914062 C 49.984375 35.757812 50.546875 33.628906 51.390625 31.617188 C 52.242188 29.609375 53.335938 27.714844 54.640625 25.976562 C 55.945312 24.242188 57.472656 22.6875 59.15625 21.328125 C 60.84375 19.972656 62.710938 18.859375 64.675781 17.96875 C 66.640625 17.078125 68.714844 16.445312 70.832031 16.082031 C 71.359375 15.984375 71.890625 15.910156 72.421875 15.859375 C 72.953125 15.792969 73.488281 15.769531 74.023438 15.742188 C 74.554688 15.703125 75.089844 15.726562 75.621094 15.71875 L 75.914062 15.722656 L 76.085938 15.730469 L 76.433594 15.753906 L 77.125 15.792969 L 74.007812 17.664062 C 75.375 15.109375 77.046875 12.726562 79.007812 10.621094 C 80.964844 8.515625 83.171875 6.65625 85.582031 5.125 C 87.996094 3.597656 90.589844 2.386719 93.285156 1.519531 C 95.980469 0.65625 98.78125 0.179688 101.574219 0.0390625 C 102.96875 -0.0234375 104.367188 -0.0117188 105.75 0.125 L 106.734375 0.214844 L 107.792969 0.359375 C 108.507812 0.445312 109.183594 0.585938 109.859375 0.726562 C 111.210938 1.007812 112.535156 1.402344 113.828125 1.855469 C 114.476562 2.074219 115.105469 2.355469 115.738281 2.601562 C 116.367188 2.875 116.976562 3.183594 117.585938 3.480469 C 118.179688 3.8125 118.785156 4.125 119.363281 4.480469 C 119.929688 4.851562 120.519531 5.179688 121.0625 5.585938 C 121.609375 5.980469 122.167969 6.355469 122.679688 6.789062 L 123.464844 7.417969 C 123.722656 7.632812 123.964844 7.863281 124.214844 8.085938 C 124.71875 8.527344 125.183594 9.003906 125.644531 9.488281 C 126.117188 9.953125 126.539062 10.472656 126.972656 10.96875 C 127.414062 11.460938 127.792969 12.007812 128.199219 12.523438 C 128.585938 13.054688 128.9375 13.613281 129.304688 14.152344 C 128.398438 13.207031 127.472656 12.289062 126.484375 11.449219 C 125.984375 11.035156 125.5 10.609375 124.972656 10.234375 L 124.199219 9.660156 C 123.9375 9.472656 123.660156 9.304688 123.398438 9.125 C 123.128906 8.949219 122.871094 8.761719 122.597656 8.59375 L 121.773438 8.101562 C 121.234375 7.761719 120.660156 7.484375 120.097656 7.1875 C 119.542969 6.882812 118.945312 6.65625 118.378906 6.386719 C 117.796875 6.132812 117.199219 5.925781 116.617188 5.695312 L 114.820312 5.125 C 114.210938 4.976562 113.617188 4.789062 113.003906 4.664062 C 111.785156 4.398438 110.558594 4.195312 109.324219 4.089844 C 108.707031 4.03125 108.09375 3.972656 107.5 3.96875 L 106.609375 3.941406 L 105.632812 3.960938 C 104.402344 3.964844 103.183594 4.109375 101.976562 4.28125 C 99.566406 4.636719 97.21875 5.292969 95.007812 6.230469 C 92.792969 7.15625 90.707031 8.363281 88.816406 9.796875 C 86.914062 11.21875 85.210938 12.882812 83.742188 14.71875 C 82.28125 16.554688 81.027344 18.546875 80.0625 20.664062 L 79.210938 22.53125 L 76.945312 22.535156 L 75.730469 22.535156 C 75.898438 22.539062 75.753906 22.539062 75.785156 22.539062 L 75.746094 22.542969 L 75.671875 22.546875 C 75.28125 22.582031 74.886719 22.578125 74.5 22.632812 C 74.109375 22.679688 73.71875 22.71875 73.335938 22.792969 C 72.949219 22.851562 72.566406 22.929688 72.1875 23.019531 C 70.667969 23.351562 69.199219 23.878906 67.824219 24.585938 C 65.066406 25.984375 62.6875 28.074219 60.921875 30.566406 C 60.050781 31.820312 59.332031 33.171875 58.785156 34.585938 C 58.257812 36.007812 57.878906 37.480469 57.699219 38.980469 C 57.601562 39.730469 57.570312 40.492188 57.5625 41.246094 L 57.578125 41.75 L 57.582031 42.003906 L 57.585938 42.132812 L 57.597656 42.308594 L 57.652344 43 L 57.679688 43.34375 C 57.691406 43.457031 57.671875 43.238281 57.675781 43.273438 L 57.679688 43.308594 L 57.691406 43.378906 L 57.710938 43.519531 C 57.898438 45.027344 58.261719 46.496094 58.800781 47.894531 C 59.855469 50.699219 61.648438 53.207031 63.953125 55.136719 C 66.242188 57.078125 69.019531 58.460938 71.988281 59.109375 C 72.726562 59.28125 73.480469 59.382812 74.238281 59.46875 C 74.421875 59.488281 74.582031 59.496094 74.757812 59.511719 C 74.9375 59.523438 75.066406 59.542969 75.324219 59.546875 L 76.019531 59.5625 L 76.191406 59.566406 C 76.019531 59.566406 76.167969 59.566406 76.136719 59.566406 L 76.175781 59.566406 L 76.25 59.5625 L 76.554688 59.5625 C 78.183594 59.558594 79.789062 59.410156 81.367188 59.132812 C 84.527344 58.574219 87.542969 57.394531 90.4375 55.761719 C 93.332031 54.128906 96.078125 52.019531 98.765625 49.691406 C 101.46875 47.375 104.117188 44.839844 106.878906 42.304688 C 109.648438 39.777344 112.550781 37.257812 115.730469 34.980469 C 117.320312 33.839844 118.996094 32.785156 120.738281 31.832031 C 121.171875 31.589844 121.613281 31.359375 122.058594 31.136719 C 122.492188 30.917969 123 30.675781 123.429688 30.476562 L 124.0625 30.195312 C 124.347656 30.066406 124.546875 29.992188 124.792969 29.890625 C 125.265625 29.703125 125.722656 29.496094 126.210938 29.335938 C 130.023438 27.945312 134.25 27.277344 138.441406 27.90625 C 142.605469 28.5 146.730469 30.585938 149.378906 34.058594 C 150.042969 34.917969 150.589844 35.871094 151.015625 36.875 C 151.453125 37.871094 151.753906 38.933594 151.898438 40.011719 C 152.054688 41.085938 152.074219 42.183594 151.925781 43.25 C 151.886719 43.757812 151.726562 44.378906 151.609375 44.878906 L 151.402344 45.542969 L 151.328125 45.777344 L 151.246094 45.960938 L 151.078125 46.324219 C 150.15625 48.265625 148.703125 49.804688 147.101562 50.957031 C 146.300781 51.535156 145.445312 52.015625 144.554688 52.390625 C 143.671875 52.769531 142.757812 53.070312 141.835938 53.246094 " clip-rule="nonzero"/></clipPath><clipPath id="a049477183"><path d="M 183.222656 20.304688 L 80.164062 -46.953125 L 18.257812 47.503906 L 121.316406 114.761719 Z M 183.222656 20.304688 " clip-rule="nonzero"/></clipPath><radialGradient gradientTransform="matrix(-0.547911, 0.836027, -0.837807, -0.546747, 123.075326, -3.044405)" gradientUnits="userSpaceOnUse" r="93.89629" cx="0" id="6aa0b17aa2" cy="0" fx="0" fy="0"><stop stop-opacity="1" stop-color="rgb(31.604004%, 67.652893%, 89.7995%)" offset="0"/><stop stop-opacity="1" stop-color="rgb(31.404114%, 67.501831%, 89.608765%)" offset="0.00390625"/><stop stop-opacity="1" stop-color="rgb(31.399536%, 67.312622%, 89.408875%)" offset="0.0078125"/><stop stop-opacity="1" stop-color="rgb(31.217957%, 67.112732%, 89.399719%)" offset="0.0117188"/><stop stop-opacity="1" stop-color="rgb(31.018066%, 66.921997%, 89.222717%)" offset="0.015625"/><stop stop-opacity="1" stop-color="rgb(30.999756%, 66.522217%, 88.999939%)" offset="0.0195312"/><stop stop-opacity="1" stop-color="rgb(30.999756%, 66.281128%, 88.777161%)" offset="0.0234375"/><stop stop-opacity="1" stop-color="rgb(30.999756%, 66.069031%, 88.586426%)" offset="0.0273438"/><stop stop-opacity="1" stop-color="rgb(30.990601%, 65.686035%, 88.386536%)" offset="0.03125"/><stop stop-opacity="1" stop-color="rgb(30.79071%, 65.4953%, 88.198853%)" offset="0.0351562"/><stop stop-opacity="1" stop-color="rgb(30.599976%, 65.296936%, 88.198853%)" offset="0.0390625"/><stop stop-opacity="1" stop-color="rgb(30.599976%, 65.100098%, 88.005066%)" offset="0.0429688"/><stop stop-opacity="1" stop-color="rgb(30.599976%, 64.909363%, 87.805176%)" offset="0.046875"/><stop stop-opacity="1" stop-color="rgb(30.599976%, 64.709473%, 87.799072%)" offset="0.0507812"/><stop stop-opacity="1" stop-color="rgb(30.599976%, 64.518738%, 87.663269%)" offset="0.0546875"/><stop stop-opacity="1" stop-color="rgb(30.4245%, 64.318848%, 87.513733%)" offset="0.0585938"/><stop stop-opacity="1" stop-color="rgb(30.223083%, 64.099121%, 87.478638%)" offset="0.0625"/><stop stop-opacity="1" stop-color="rgb(30.183411%, 63.883972%, 87.278748%)" offset="0.0664062"/><stop stop-opacity="1" stop-color="rgb(29.983521%, 63.673401%, 87.098694%)" offset="0.0703125"/><stop stop-opacity="1" stop-color="rgb(29.798889%, 63.288879%, 87.09259%)" offset="0.0742188"/><stop stop-opacity="1" stop-color="rgb(29.798889%, 63.098145%, 86.8927%)" offset="0.078125"/><stop stop-opacity="1" stop-color="rgb(29.798889%, 62.901306%, 86.698914%)" offset="0.0820312"/><stop stop-opacity="1" stop-color="rgb(29.798889%, 62.557983%, 86.698914%)" offset="0.0859375"/><stop stop-opacity="1" stop-color="rgb(29.611206%, 62.405396%, 86.51123%)" offset="0.0898438"/><stop stop-opacity="1" stop-color="rgb(29.411316%, 62.216187%, 86.31134%)" offset="0.09375"/><stop stop-opacity="1" stop-color="rgb(29.399109%, 62.016296%, 86.299133%)" offset="0.0976562"/><stop stop-opacity="1" stop-color="rgb(29.399109%, 61.799622%, 86.099243%)" offset="0.101562"/><stop stop-opacity="1" stop-color="rgb(29.399109%, 61.579895%, 85.899353%)" offset="0.105469"/><stop stop-opacity="1" stop-color="rgb(29.399109%, 61.380005%, 85.884094%)" offset="0.109375"/><stop stop-opacity="1" stop-color="rgb(29.389954%, 61.18927%, 85.684204%)" offset="0.113281"/><stop stop-opacity="1" stop-color="rgb(29.190063%, 60.98938%, 85.494995%)" offset="0.117188"/><stop stop-opacity="1" stop-color="rgb(28.999329%, 60.798645%, 85.295105%)" offset="0.121094"/><stop stop-opacity="1" stop-color="rgb(28.999329%, 60.603333%, 85.099792%)" offset="0.125"/><stop stop-opacity="1" stop-color="rgb(28.999329%, 60.403442%, 85.099792%)" offset="0.128906"/><stop stop-opacity="1" stop-color="rgb(28.999329%, 60.212708%, 84.913635%)" offset="0.132812"/><stop stop-opacity="1" stop-color="rgb(28.999329%, 60.012817%, 84.712219%)" offset="0.136719"/><stop stop-opacity="1" stop-color="rgb(28.822327%, 59.822083%, 84.698486%)" offset="0.140625"/><stop stop-opacity="1" stop-color="rgb(28.622437%, 59.422302%, 84.498596%)" offset="0.144531"/><stop stop-opacity="1" stop-color="rgb(28.581238%, 59.181213%, 84.281921%)" offset="0.148438"/><stop stop-opacity="1" stop-color="rgb(28.381348%, 58.969116%, 84.082031%)" offset="0.152344"/><stop stop-opacity="1" stop-color="rgb(28.199768%, 58.586121%, 83.898926%)" offset="0.15625"/><stop stop-opacity="1" stop-color="rgb(28.199768%, 58.395386%, 83.898926%)" offset="0.160156"/><stop stop-opacity="1" stop-color="rgb(28.199768%, 58.197021%, 83.898926%)" offset="0.164062"/><stop stop-opacity="1" stop-color="rgb(28.199768%, 58.000183%, 83.705139%)" offset="0.167969"/><stop stop-opacity="1" stop-color="rgb(28.199768%, 57.809448%, 83.505249%)" offset="0.171875"/><stop stop-opacity="1" stop-color="rgb(28.015137%, 57.609558%, 83.499146%)" offset="0.175781"/><stop stop-opacity="1" stop-color="rgb(27.815247%, 57.4646%, 83.319092%)" offset="0.179688"/><stop stop-opacity="1" stop-color="rgb(27.799988%, 57.315063%, 83.119202%)" offset="0.183594"/><stop stop-opacity="1" stop-color="rgb(27.799988%, 57.098389%, 83.078003%)" offset="0.1875"/><stop stop-opacity="1" stop-color="rgb(27.799988%, 56.898499%, 82.878113%)" offset="0.191406"/><stop stop-opacity="1" stop-color="rgb(27.799988%, 56.887817%, 82.69043%)" offset="0.195312"/><stop stop-opacity="1" stop-color="rgb(27.799988%, 56.681824%, 82.540894%)" offset="0.199219"/><stop stop-opacity="1" stop-color="rgb(27.798462%, 56.292725%, 82.398987%)" offset="0.203125"/><stop stop-opacity="1" stop-color="rgb(27.650452%, 56.098938%, 82.398987%)" offset="0.207031"/><stop stop-opacity="1" stop-color="rgb(27.500916%, 55.906677%, 82.206726%)" offset="0.210938"/><stop stop-opacity="1" stop-color="rgb(27.49939%, 55.706787%, 82.006836%)" offset="0.214844"/><stop stop-opacity="1" stop-color="rgb(27.49939%, 55.516052%, 81.816101%)" offset="0.21875"/><stop stop-opacity="1" stop-color="rgb(27.49939%, 55.137634%, 81.616211%)" offset="0.222656"/><stop stop-opacity="1" stop-color="rgb(27.2995%, 54.896545%, 81.599426%)" offset="0.226562"/><stop stop-opacity="1" stop-color="rgb(27.099609%, 54.675293%, 81.57959%)" offset="0.230469"/><stop stop-opacity="1" stop-color="rgb(27.084351%, 54.484558%, 81.3797%)" offset="0.234375"/><stop stop-opacity="1" stop-color="rgb(26.88446%, 54.284668%, 81.199646%)" offset="0.238281"/><stop stop-opacity="1" stop-color="rgb(26.699829%, 54.093933%, 81.195068%)" offset="0.242188"/><stop stop-opacity="1" stop-color="rgb(26.699829%, 53.894043%, 80.995178%)" offset="0.246094"/><stop stop-opacity="1" stop-color="rgb(26.699829%, 53.69873%, 80.799866%)" offset="0.25"/><stop stop-opacity="1" stop-color="rgb(26.699829%, 53.507996%, 80.799866%)" offset="0.253906"/><stop stop-opacity="1" stop-color="rgb(26.699829%, 53.308105%, 80.618286%)" offset="0.257812"/><stop stop-opacity="1" stop-color="rgb(26.699829%, 53.121948%, 80.41687%)" offset="0.265625"/><stop stop-opacity="1" stop-color="rgb(26.498413%, 52.722168%, 80.198669%)" offset="0.269531"/><stop stop-opacity="1" stop-color="rgb(26.298523%, 52.485657%, 79.981995%)" offset="0.273438"/><stop stop-opacity="1" stop-color="rgb(26.298523%, 52.328491%, 79.782104%)" offset="0.277344"/><stop stop-opacity="1" stop-color="rgb(26.295471%, 51.991272%, 79.595947%)" offset="0.285156"/><stop stop-opacity="1" stop-color="rgb(26.097107%, 51.799011%, 79.397583%)" offset="0.289062"/><stop stop-opacity="1" stop-color="rgb(25.900269%, 51.605225%, 79.200745%)" offset="0.292969"/><stop stop-opacity="1" stop-color="rgb(25.898743%, 51.220703%, 79.014587%)" offset="0.296875"/><stop stop-opacity="1" stop-color="rgb(25.718689%, 51.014709%, 78.814697%)" offset="0.304688"/><stop stop-opacity="1" stop-color="rgb(25.518799%, 50.823975%, 78.799438%)" offset="0.308594"/><stop stop-opacity="1" stop-color="rgb(25.498962%, 50.602722%, 78.778076%)" offset="0.3125"/><stop stop-opacity="1" stop-color="rgb(25.498962%, 50.367737%, 78.578186%)" offset="0.316406"/><stop stop-opacity="1" stop-color="rgb(25.498962%, 49.987793%, 78.393555%)" offset="0.324219"/><stop stop-opacity="1" stop-color="rgb(25.498962%, 49.797058%, 78.193665%)" offset="0.328125"/><stop stop-opacity="1" stop-color="rgb(25.498962%, 49.60022%, 77.999878%)" offset="0.332031"/><stop stop-opacity="1" stop-color="rgb(25.306702%, 49.401855%, 77.999878%)" offset="0.335938"/><stop stop-opacity="1" stop-color="rgb(25.106812%, 49.211121%, 77.999878%)" offset="0.339844"/><stop stop-opacity="1" stop-color="rgb(25.099182%, 49.01123%, 77.816772%)" offset="0.34375"/><stop stop-opacity="1" stop-color="rgb(25.099182%, 48.820496%, 77.615356%)" offset="0.347656"/><stop stop-opacity="1" stop-color="rgb(25.099182%, 48.597717%, 77.449036%)" offset="0.351562"/><stop stop-opacity="1" stop-color="rgb(25.099182%, 48.374939%, 77.279663%)" offset="0.355469"/><stop stop-opacity="1" stop-color="rgb(25.099182%, 48.184204%, 77.079773%)" offset="0.359375"/><stop stop-opacity="1" stop-color="rgb(25.090027%, 47.984314%, 76.899719%)" offset="0.363281"/><stop stop-opacity="1" stop-color="rgb(24.890137%, 47.795105%, 76.895142%)" offset="0.367188"/><stop stop-opacity="1" stop-color="rgb(24.699402%, 47.645569%, 76.695251%)" offset="0.371094"/><stop stop-opacity="1" stop-color="rgb(24.508667%, 47.30835%, 76.499939%)" offset="0.378906"/><stop stop-opacity="1" stop-color="rgb(24.308777%, 46.92688%, 76.318359%)" offset="0.382812"/><stop stop-opacity="1" stop-color="rgb(24.299622%, 46.717834%, 76.116943%)" offset="0.390625"/><stop stop-opacity="1" stop-color="rgb(24.299622%, 46.499634%, 76.077271%)" offset="0.394531"/><stop stop-opacity="1" stop-color="rgb(24.299622%, 46.286011%, 75.87738%)" offset="0.398438"/><stop stop-opacity="1" stop-color="rgb(24.299622%, 46.086121%, 75.691223%)" offset="0.40625"/><stop stop-opacity="1" stop-color="rgb(24.29657%, 45.895386%, 75.491333%)" offset="0.410156"/><stop stop-opacity="1" stop-color="rgb(24.098206%, 45.697021%, 75.299072%)" offset="0.414062"/><stop stop-opacity="1" stop-color="rgb(23.901367%, 45.306396%, 75.299072%)" offset="0.417969"/><stop stop-opacity="1" stop-color="rgb(23.899841%, 45.10498%, 75.109863%)" offset="0.421875"/><stop stop-opacity="1" stop-color="rgb(23.899841%, 44.914246%, 74.909973%)" offset="0.425781"/><stop stop-opacity="1" stop-color="rgb(23.899841%, 44.540405%, 74.723816%)" offset="0.429688"/><stop stop-opacity="1" stop-color="rgb(23.899841%, 44.32373%, 74.504089%)" offset="0.4375"/><stop stop-opacity="1" stop-color="rgb(23.883057%, 44.282532%, 74.278259%)" offset="0.441406"/><stop stop-opacity="1" stop-color="rgb(23.683167%, 44.076538%, 74.099731%)" offset="0.445312"/><stop stop-opacity="1" stop-color="rgb(23.497009%, 43.693542%, 74.098206%)" offset="0.453125"/><stop stop-opacity="1" stop-color="rgb(23.300171%, 43.499756%, 73.901367%)" offset="0.457031"/><stop stop-opacity="1" stop-color="rgb(23.101807%, 43.307495%, 73.703003%)" offset="0.460938"/><stop stop-opacity="1" stop-color="rgb(23.098755%, 43.107605%, 73.516846%)" offset="0.464844"/><stop stop-opacity="1" stop-color="rgb(23.098755%, 42.921448%, 73.31543%)" offset="0.472656"/><stop stop-opacity="1" stop-color="rgb(23.098755%, 42.570496%, 73.275757%)" offset="0.476562"/><stop stop-opacity="1" stop-color="rgb(23.098755%, 42.379761%, 73.075867%)" offset="0.480469"/><stop stop-opacity="1" stop-color="rgb(23.098755%, 42.170715%, 72.889709%)" offset="0.484375"/><stop stop-opacity="1" stop-color="rgb(23.094177%, 41.789246%, 72.689819%)" offset="0.492188"/><stop stop-opacity="1" stop-color="rgb(22.894287%, 41.598511%, 72.499084%)" offset="0.496094"/><stop stop-opacity="1" stop-color="rgb(22.698975%, 41.407776%, 72.499084%)" offset="0.503906"/><stop stop-opacity="1" stop-color="rgb(22.698975%, 41.207886%, 72.358704%)" offset="0.507812"/><stop stop-opacity="1" stop-color="rgb(22.698975%, 41.017151%, 72.209167%)" offset="0.511719"/><stop stop-opacity="1" stop-color="rgb(22.566223%, 40.817261%, 72.021484%)" offset="0.515625"/><stop stop-opacity="1" stop-color="rgb(22.416687%, 40.59906%, 71.821594%)" offset="0.519531"/><stop stop-opacity="1" stop-color="rgb(22.399902%, 40.39917%, 71.781921%)" offset="0.523438"/><stop stop-opacity="1" stop-color="rgb(22.399902%, 40.386963%, 71.582031%)" offset="0.527344"/><stop stop-opacity="1" stop-color="rgb(22.399902%, 40.187073%, 71.398926%)" offset="0.53125"/><stop stop-opacity="1" stop-color="rgb(22.399902%, 39.996338%, 71.398926%)" offset="0.535156"/><stop stop-opacity="1" stop-color="rgb(22.399902%, 39.797974%, 71.398926%)" offset="0.539062"/><stop stop-opacity="1" stop-color="rgb(22.206116%, 39.601135%, 71.205139%)" offset="0.542969"/><stop stop-opacity="1" stop-color="rgb(22.0047%, 39.4104%, 71.005249%)" offset="0.546875"/><stop stop-opacity="1" stop-color="rgb(21.998596%, 39.21051%, 70.814514%)" offset="0.550781"/><stop stop-opacity="1" stop-color="rgb(21.998596%, 39.019775%, 70.614624%)" offset="0.554688"/><stop stop-opacity="1" stop-color="rgb(21.998596%, 38.818359%, 70.599365%)" offset="0.558594"/><stop stop-opacity="1" stop-color="rgb(21.998596%, 38.598633%, 70.578003%)" offset="0.5625"/><stop stop-opacity="1" stop-color="rgb(21.998596%, 38.383484%, 70.378113%)" offset="0.566406"/><stop stop-opacity="1" stop-color="rgb(21.99707%, 38.182068%, 70.198059%)" offset="0.570312"/><stop stop-opacity="1" stop-color="rgb(21.800232%, 37.800598%, 70.001221%)" offset="0.582031"/><stop stop-opacity="1" stop-color="rgb(21.601868%, 37.451172%, 69.619751%)" offset="0.585938"/><stop stop-opacity="1" stop-color="rgb(21.420288%, 37.298584%, 69.415283%)" offset="0.597656"/><stop stop-opacity="1" stop-color="rgb(21.220398%, 37.098694%, 69.198608%)" offset="0.601562"/><stop stop-opacity="1" stop-color="rgb(21.199036%, 36.880493%, 68.998718%)" offset="0.605469"/><stop stop-opacity="1" stop-color="rgb(21.199036%, 36.680603%, 68.984985%)" offset="0.609375"/><stop stop-opacity="1" stop-color="rgb(21.199036%, 36.489868%, 68.785095%)" offset="0.613281"/><stop stop-opacity="1" stop-color="rgb(21.199036%, 36.289978%, 68.598938%)" offset="0.617188"/><stop stop-opacity="1" stop-color="rgb(21.199036%, 36.099243%, 68.598938%)" offset="0.621094"/><stop stop-opacity="1" stop-color="rgb(21.199036%, 35.903931%, 68.403625%)" offset="0.625"/><stop stop-opacity="1" stop-color="rgb(21.199036%, 35.704041%, 68.203735%)" offset="0.628906"/><stop stop-opacity="1" stop-color="rgb(21.199036%, 35.517883%, 68.199158%)" offset="0.636719"/><stop stop-opacity="1" stop-color="rgb(21.022034%, 35.317993%, 68.022156%)" offset="0.640625"/><stop stop-opacity="1" stop-color="rgb(20.822144%, 35.099792%, 67.822266%)" offset="0.644531"/><stop stop-opacity="1" stop-color="rgb(20.799255%, 34.886169%, 67.790222%)" offset="0.648438"/><stop stop-opacity="1" stop-color="rgb(20.799255%, 34.683228%, 67.63916%)" offset="0.65625"/><stop stop-opacity="1" stop-color="rgb(20.799255%, 34.29718%, 67.498779%)" offset="0.664062"/><stop stop-opacity="1" stop-color="rgb(20.605469%, 34.100342%, 67.304993%)" offset="0.667969"/><stop stop-opacity="1" stop-color="rgb(20.405579%, 33.914185%, 67.105103%)" offset="0.671875"/><stop stop-opacity="1" stop-color="rgb(20.399475%, 33.714294%, 66.918945%)" offset="0.679688"/><stop stop-opacity="1" stop-color="rgb(20.399475%, 33.52356%, 66.719055%)" offset="0.683594"/><stop stop-opacity="1" stop-color="rgb(20.399475%, 33.303833%, 66.499329%)" offset="0.6875"/><stop stop-opacity="1" stop-color="rgb(20.399475%, 33.067322%, 66.299438%)" offset="0.691406"/><stop stop-opacity="1" stop-color="rgb(20.393372%, 32.688904%, 66.293335%)" offset="0.699219"/><stop stop-opacity="1" stop-color="rgb(20.193481%, 32.348633%, 66.093445%)" offset="0.703125"/><stop stop-opacity="1" stop-color="rgb(19.999695%, 32.199097%, 65.716553%)" offset="0.71875"/><stop stop-opacity="1" stop-color="rgb(19.999695%, 32.020569%, 65.516663%)" offset="0.722656"/><stop stop-opacity="1" stop-color="rgb(19.999695%, 31.797791%, 65.475464%)" offset="0.726562"/><stop stop-opacity="1" stop-color="rgb(19.979858%, 31.575012%, 65.275574%)" offset="0.730469"/><stop stop-opacity="1" stop-color="rgb(19.779968%, 31.390381%, 65.089417%)" offset="0.734375"/><stop stop-opacity="1" stop-color="rgb(19.599915%, 31.190491%, 64.889526%)" offset="0.742188"/><stop stop-opacity="1" stop-color="rgb(19.599915%, 30.804443%, 64.503479%)" offset="0.75"/><stop stop-opacity="1" stop-color="rgb(19.599915%, 30.604553%, 64.303589%)" offset="0.753906"/><stop stop-opacity="1" stop-color="rgb(19.599915%, 30.413818%, 64.299011%)" offset="0.757812"/><stop stop-opacity="1" stop-color="rgb(19.599915%, 30.212402%, 64.299011%)" offset="0.761719"/><stop stop-opacity="1" stop-color="rgb(19.599915%, 30.198669%, 64.122009%)" offset="0.765625"/><stop stop-opacity="1" stop-color="rgb(19.398499%, 29.998779%, 63.922119%)" offset="0.769531"/><stop stop-opacity="1" stop-color="rgb(19.198608%, 29.798889%, 63.899231%)" offset="0.773438"/><stop stop-opacity="1" stop-color="rgb(19.198608%, 29.786682%, 63.887024%)" offset="0.777344"/><stop stop-opacity="1" stop-color="rgb(19.198608%, 29.586792%, 63.687134%)" offset="0.78125"/><stop stop-opacity="1" stop-color="rgb(19.198608%, 29.396057%, 63.499451%)" offset="0.785156"/><stop stop-opacity="1" stop-color="rgb(19.198608%, 29.197693%, 63.499451%)" offset="0.789062"/><stop stop-opacity="1" stop-color="rgb(19.198608%, 29.000854%, 63.305664%)" offset="0.792969"/><stop stop-opacity="1" stop-color="rgb(19.198608%, 28.999329%, 63.105774%)" offset="0.796875"/><stop stop-opacity="1" stop-color="rgb(19.198608%, 28.814697%, 63.09967%)" offset="0.800781"/><stop stop-opacity="1" stop-color="rgb(19.198608%, 28.614807%, 63.09967%)" offset="0.804688"/><stop stop-opacity="1" stop-color="rgb(19.198608%, 28.599548%, 62.924194%)" offset="0.808594"/><stop stop-opacity="1" stop-color="rgb(18.998718%, 28.399658%, 62.709045%)" offset="0.8125"/><stop stop-opacity="1" stop-color="rgb(18.798828%, 28.182983%, 62.533569%)" offset="0.816406"/><stop stop-opacity="1" stop-color="rgb(18.798828%, 27.978516%, 62.393188%)" offset="0.820312"/><stop stop-opacity="1" stop-color="rgb(18.798828%, 27.644348%, 62.193298%)" offset="0.828125"/><stop stop-opacity="1" stop-color="rgb(18.798828%, 27.311707%, 61.999512%)" offset="0.835938"/><stop stop-opacity="1" stop-color="rgb(18.615723%, 27.111816%, 61.816406%)" offset="0.84375"/><stop stop-opacity="1" stop-color="rgb(18.415833%, 27.099609%, 61.616516%)" offset="0.847656"/><stop stop-opacity="1" stop-color="rgb(18.399048%, 26.899719%, 61.599731%)" offset="0.851562"/><stop stop-opacity="1" stop-color="rgb(18.399048%, 26.699829%, 61.579895%)" offset="0.855469"/><stop stop-opacity="1" stop-color="rgb(18.399048%, 26.68457%, 61.380005%)" offset="0.859375"/><stop stop-opacity="1" stop-color="rgb(18.399048%, 26.48468%, 61.193848%)" offset="0.863281"/><stop stop-opacity="1" stop-color="rgb(18.399048%, 26.10321%, 60.993958%)" offset="0.871094"/><stop stop-opacity="1" stop-color="rgb(18.399048%, 25.90332%, 60.798645%)" offset="0.878906"/><stop stop-opacity="1" stop-color="rgb(18.399048%, 25.712585%, 60.612488%)" offset="0.882812"/><stop stop-opacity="1" stop-color="rgb(18.399048%, 25.512695%, 60.412598%)" offset="0.886719"/><stop stop-opacity="1" stop-color="rgb(18.399048%, 25.498962%, 60.398865%)" offset="0.890625"/><stop stop-opacity="1" stop-color="rgb(18.199158%, 25.299072%, 60.198975%)" offset="0.894531"/><stop stop-opacity="1" stop-color="rgb(17.999268%, 25.099182%, 59.999084%)" offset="0.898438"/><stop stop-opacity="1" stop-color="rgb(17.999268%, 25.086975%, 59.986877%)" offset="0.902344"/><stop stop-opacity="1" stop-color="rgb(17.999268%, 24.887085%, 59.786987%)" offset="0.90625"/><stop stop-opacity="1" stop-color="rgb(17.999268%, 24.505615%, 59.599304%)" offset="0.917969"/><stop stop-opacity="1" stop-color="rgb(17.999268%, 24.305725%, 59.410095%)" offset="0.921875"/><stop stop-opacity="1" stop-color="rgb(17.999268%, 24.119568%, 59.210205%)" offset="0.925781"/><stop stop-opacity="1" stop-color="rgb(17.823792%, 23.919678%, 59.199524%)" offset="0.933594"/><stop stop-opacity="1" stop-color="rgb(17.623901%, 23.698425%, 58.999634%)" offset="0.9375"/><stop stop-opacity="1" stop-color="rgb(17.599487%, 23.483276%, 58.799744%)" offset="0.941406"/><stop stop-opacity="1" stop-color="rgb(17.599487%, 23.283386%, 58.787537%)" offset="0.945312"/><stop stop-opacity="1" stop-color="rgb(17.599487%, 23.098755%, 58.587646%)" offset="0.949219"/><stop stop-opacity="1" stop-color="rgb(17.599487%, 22.906494%, 58.399963%)" offset="0.960938"/><stop stop-opacity="1" stop-color="rgb(17.459106%, 22.706604%, 58.21228%)" offset="0.964844"/><stop stop-opacity="1" stop-color="rgb(17.308044%, 22.564697%, 58.010864%)" offset="0.96875"/><stop stop-opacity="1" stop-color="rgb(17.298889%, 22.415161%, 57.798767%)" offset="0.976562"/><stop stop-opacity="1" stop-color="rgb(17.298889%, 22.380066%, 57.598877%)" offset="0.980469"/><stop stop-opacity="1" stop-color="rgb(17.298889%, 22.180176%, 57.449341%)" offset="0.984375"/><stop stop-opacity="1" stop-color="rgb(17.298889%, 21.998596%, 57.299805%)" offset="1"/></radialGradient><clipPath id="a9db0aa335"><path d="M 60.726562 13.777344 L 162.648438 13.777344 L 162.648438 64 L 60.726562 64 Z M 60.726562 13.777344 " clip-rule="nonzero"/></clipPath><clipPath id="c8507a7136"><path d="M 122.5 57.308594 C 122.5 57.308594 122.664062 57.410156 122.972656 57.605469 C 123.28125 57.808594 123.757812 58.074219 124.367188 58.417969 C 125.601562 59.089844 127.488281 59.949219 129.972656 60.554688 C 132.441406 61.136719 135.578125 61.417969 138.929688 60.773438 C 139.375 60.683594 139.871094 60.617188 140.292969 60.503906 C 140.695312 60.386719 141.105469 60.265625 141.519531 60.144531 C 141.925781 60.050781 142.359375 59.84375 142.789062 59.691406 C 143.21875 59.527344 143.65625 59.371094 144.070312 59.144531 C 145.78125 58.371094 147.445312 57.28125 148.957031 55.941406 C 151.996094 53.28125 154.472656 49.488281 155.390625 45.121094 C 155.480469 44.570312 155.570312 44.023438 155.660156 43.46875 C 155.726562 42.910156 155.746094 42.34375 155.796875 41.785156 L 155.8125 41.625 C 155.808594 41.683594 155.824219 41.417969 155.808594 41.746094 L 155.800781 41.496094 L 155.792969 40.996094 L 155.773438 39.988281 C 155.789062 39.242188 155.65625 38.824219 155.59375 38.28125 L 155.488281 37.5 L 155.277344 36.65625 L 155.082031 35.808594 C 155.027344 35.523438 154.898438 35.257812 154.8125 34.980469 C 154.46875 33.867188 153.96875 32.800781 153.410156 31.765625 C 152.261719 29.707031 150.722656 27.828125 148.863281 26.300781 C 147 24.777344 144.832031 23.601562 142.511719 22.878906 C 141.925781 22.730469 141.335938 22.582031 140.742188 22.433594 L 138.933594 22.164062 C 138.324219 22.113281 137.710938 22.117188 137.097656 22.082031 L 136.867188 22.070312 C 136.722656 22.070312 137.007812 22.0625 136.949219 22.066406 L 136.878906 22.066406 L 136.738281 22.074219 L 136.175781 22.09375 L 135.050781 22.140625 L 134.765625 22.148438 C 134.679688 22.15625 134.613281 22.167969 134.535156 22.175781 L 134.082031 22.230469 L 133.175781 22.332031 C 132.554688 22.410156 131.882812 22.554688 131.238281 22.65625 C 130.585938 22.792969 129.945312 22.964844 129.296875 23.113281 L 127.371094 23.699219 C 122.242188 25.382812 117.402344 28.339844 112.847656 31.699219 C 111.710938 32.542969 110.59375 33.421875 109.488281 34.316406 C 108.386719 35.199219 107.269531 36.125 106.195312 37.042969 C 104.019531 38.894531 101.890625 40.800781 99.738281 42.65625 C 97.59375 44.503906 95.445312 46.382812 93.273438 48.105469 C 91.070312 49.859375 88.78125 51.589844 86.222656 52.960938 C 83.691406 54.335938 80.859375 55.363281 77.957031 55.636719 C 77.597656 55.683594 77.230469 55.675781 76.871094 55.699219 L 76.332031 55.714844 C 76.441406 55.714844 76.105469 55.71875 76.121094 55.71875 L 76.066406 55.714844 L 75.726562 55.691406 C 75.425781 55.671875 75.128906 55.652344 74.832031 55.632812 C 74.492188 55.597656 74.074219 55.527344 73.703125 55.472656 C 72.910156 55.371094 72.285156 55.152344 71.609375 54.972656 C 70.957031 54.753906 70.320312 54.507812 69.71875 54.226562 C 67.3125 53.058594 65.335938 51.410156 63.890625 49.539062 C 62.464844 47.652344 61.53125 45.582031 61.101562 43.554688 C 60.667969 41.542969 60.714844 39.539062 61.019531 37.910156 C 61.304688 36.203125 61.832031 34.734375 62.433594 33.476562 C 63.035156 32.222656 63.71875 31.191406 64.382812 30.363281 C 65.046875 29.535156 65.671875 28.894531 66.210938 28.410156 C 66.472656 28.164062 66.71875 27.964844 66.933594 27.792969 C 67.144531 27.621094 67.328125 27.484375 67.480469 27.378906 C 67.78125 27.164062 67.933594 27.054688 67.933594 27.054688 C 67.933594 27.054688 67.808594 27.195312 67.566406 27.472656 C 67.324219 27.742188 66.984375 28.167969 66.570312 28.734375 C 65.742188 29.855469 64.683594 31.644531 64.007812 34.070312 C 63.6875 35.28125 63.4375 36.660156 63.445312 38.125 C 63.4375 39.652344 63.636719 41.144531 64.214844 42.667969 C 64.789062 44.171875 65.703125 45.644531 66.960938 46.898438 C 68.222656 48.136719 69.808594 49.152344 71.578125 49.75 C 71.789062 49.84375 72.027344 49.875 72.25 49.941406 C 72.476562 49.992188 72.699219 50.078125 72.929688 50.109375 C 73.386719 50.171875 73.882812 50.292969 74.269531 50.277344 C 74.488281 50.285156 74.65625 50.3125 74.90625 50.316406 C 75.203125 50.304688 75.503906 50.292969 75.804688 50.28125 L 76.027344 50.273438 L 76.140625 50.269531 L 76.199219 50.265625 C 76.25 50.265625 75.953125 50.269531 76.101562 50.261719 L 76.464844 50.207031 C 76.707031 50.164062 76.953125 50.152344 77.195312 50.089844 C 79.140625 49.6875 81.097656 48.828125 83.015625 47.542969 C 84.933594 46.28125 86.832031 44.671875 88.757812 42.882812 C 90.714844 41.050781 92.683594 39.183594 94.703125 37.203125 C 96.71875 35.230469 98.808594 33.222656 100.988281 31.203125 C 103.164062 29.179688 105.457031 27.171875 107.914062 25.257812 C 112.789062 21.425781 118.359375 17.925781 124.722656 15.773438 C 127.929688 14.730469 131.199219 14.054688 134.761719 13.863281 L 135.886719 13.828125 L 136.453125 13.8125 L 136.59375 13.808594 L 136.660156 13.804688 C 136.65625 13.804688 136.984375 13.800781 136.882812 13.804688 L 137.21875 13.820312 C 138.101562 13.882812 138.992188 13.910156 139.871094 14.015625 C 140.742188 14.160156 141.621094 14.296875 142.484375 14.46875 C 143.335938 14.703125 144.1875 14.933594 145.03125 15.183594 C 151.734375 17.414062 157.171875 22.445312 160 28.394531 C 160.703125 29.886719 161.296875 31.414062 161.691406 32.980469 C 161.789062 33.371094 161.929688 33.75 161.992188 34.148438 L 162.191406 35.328125 C 162.257812 35.722656 162.320312 36.113281 162.382812 36.503906 C 162.417969 36.917969 162.441406 37.339844 162.464844 37.757812 C 162.503906 38.570312 162.582031 39.496094 162.511719 40.097656 L 162.460938 41.105469 L 162.433594 41.605469 L 162.417969 41.855469 C 162.40625 42.222656 162.410156 41.996094 162.402344 42.097656 L 162.394531 42.167969 L 162.371094 42.3125 C 162.257812 43.066406 162.164062 43.820312 162.019531 44.558594 C 161.835938 45.289062 161.660156 46.019531 161.460938 46.730469 C 160.589844 49.566406 159.238281 52.136719 157.578125 54.324219 C 155.914062 56.507812 153.976562 58.332031 151.914062 59.753906 C 149.84375 61.171875 147.683594 62.253906 145.519531 62.898438 C 144.988281 63.097656 144.445312 63.214844 143.910156 63.339844 C 143.371094 63.457031 142.875 63.613281 142.3125 63.675781 C 141.769531 63.75 141.234375 63.824219 140.707031 63.898438 C 140.195312 63.953125 139.753906 63.941406 139.285156 63.96875 C 135.296875 64.125 131.957031 63.230469 129.4375 62.136719 C 126.90625 61.03125 125.199219 59.722656 124.097656 58.8125 C 123.546875 58.34375 123.148438 57.96875 122.894531 57.703125 C 122.636719 57.441406 122.5 57.308594 122.5 57.308594 Z M 122.5 57.308594 " clip-rule="nonzero"/></clipPath><clipPath id="8708bd874a"><path d="M 122.5 57.308594 C 122.5 57.308594 122.664062 57.410156 122.972656 57.605469 C 123.28125 57.808594 123.757812 58.074219 124.367188 58.417969 C 125.601562 59.089844 127.488281 59.949219 129.972656 60.554688 C 132.441406 61.136719 135.578125 61.417969 138.929688 60.773438 C 139.375 60.683594 139.871094 60.617188 140.292969 60.503906 C 140.695312 60.386719 141.105469 60.265625 141.519531 60.144531 C 141.925781 60.050781 142.359375 59.84375 142.789062 59.691406 C 143.21875 59.527344 143.65625 59.371094 144.070312 59.144531 C 145.78125 58.371094 147.445312 57.28125 148.957031 55.941406 C 151.996094 53.28125 154.472656 49.488281 155.390625 45.121094 C 155.480469 44.570312 155.570312 44.023438 155.660156 43.46875 C 155.726562 42.910156 155.746094 42.34375 155.796875 41.785156 L 155.8125 41.625 C 155.808594 41.683594 155.824219 41.417969 155.808594 41.746094 L 155.800781 41.496094 L 155.792969 40.996094 L 155.773438 39.988281 C 155.789062 39.242188 155.65625 38.824219 155.59375 38.28125 L 155.488281 37.5 L 155.277344 36.65625 L 155.082031 35.808594 C 155.027344 35.523438 154.898438 35.257812 154.8125 34.980469 C 154.46875 33.867188 153.96875 32.800781 153.410156 31.765625 C 152.261719 29.707031 150.722656 27.828125 148.863281 26.300781 C 147 24.777344 144.832031 23.601562 142.511719 22.878906 C 141.925781 22.730469 141.335938 22.582031 140.742188 22.433594 L 138.933594 22.164062 C 138.324219 22.113281 137.710938 22.117188 137.097656 22.082031 L 136.867188 22.070312 C 136.722656 22.070312 137.007812 22.0625 136.949219 22.066406 L 136.878906 22.066406 L 136.738281 22.074219 L 136.175781 22.09375 L 135.050781 22.140625 L 134.765625 22.148438 C 134.679688 22.15625 134.613281 22.167969 134.535156 22.175781 L 134.082031 22.230469 L 133.175781 22.332031 C 132.554688 22.410156 131.882812 22.554688 131.238281 22.65625 C 130.585938 22.792969 129.945312 22.964844 129.296875 23.113281 L 127.371094 23.699219 C 122.242188 25.382812 117.402344 28.339844 112.847656 31.699219 C 111.710938 32.542969 110.59375 33.421875 109.488281 34.316406 C 108.386719 35.199219 107.269531 36.125 106.195312 37.042969 C 104.019531 38.894531 101.890625 40.800781 99.738281 42.65625 C 97.59375 44.503906 95.445312 46.382812 93.273438 48.105469 C 91.070312 49.859375 88.78125 51.589844 86.222656 52.960938 C 83.691406 54.335938 80.859375 55.363281 77.957031 55.636719 C 77.597656 55.683594 77.230469 55.675781 76.871094 55.699219 L 76.332031 55.714844 C 76.441406 55.714844 76.105469 55.71875 76.121094 55.71875 L 76.066406 55.714844 L 75.726562 55.691406 C 75.425781 55.671875 75.128906 55.652344 74.832031 55.632812 C 74.492188 55.597656 74.074219 55.527344 73.703125 55.472656 C 72.910156 55.371094 72.285156 55.152344 71.609375 54.972656 C 70.957031 54.753906 70.320312 54.507812 69.71875 54.226562 C 67.3125 53.058594 65.335938 51.410156 63.890625 49.539062 C 62.464844 47.652344 61.53125 45.582031 61.101562 43.554688 C 60.667969 41.542969 60.714844 39.539062 61.019531 37.910156 C 61.304688 36.203125 61.832031 34.734375 62.433594 33.476562 C 63.035156 32.222656 63.71875 31.191406 64.382812 30.363281 C 65.046875 29.535156 65.671875 28.894531 66.210938 28.410156 C 66.472656 28.164062 66.71875 27.964844 66.933594 27.792969 C 67.144531 27.621094 67.328125 27.484375 67.480469 27.378906 C 67.78125 27.164062 67.933594 27.054688 67.933594 27.054688 C 67.933594 27.054688 67.808594 27.195312 67.566406 27.472656 C 67.324219 27.742188 66.984375 28.167969 66.570312 28.734375 C 65.742188 29.855469 64.683594 31.644531 64.007812 34.070312 C 63.6875 35.28125 63.4375 36.660156 63.445312 38.125 C 63.4375 39.652344 63.636719 41.144531 64.214844 42.667969 C 64.789062 44.171875 65.703125 45.644531 66.960938 46.898438 C 68.222656 48.136719 69.808594 49.152344 71.578125 49.75 C 71.789062 49.84375 72.027344 49.875 72.25 49.941406 C 72.476562 49.992188 72.699219 50.078125 72.929688 50.109375 C 73.386719 50.171875 73.882812 50.292969 74.269531 50.277344 C 74.488281 50.285156 74.65625 50.3125 74.90625 50.316406 C 75.203125 50.304688 75.503906 50.292969 75.804688 50.28125 L 76.027344 50.273438 L 76.140625 50.269531 L 76.199219 50.265625 C 76.25 50.265625 75.953125 50.269531 76.101562 50.261719 L 76.464844 50.207031 C 76.707031 50.164062 76.953125 50.152344 77.195312 50.089844 C 79.140625 49.6875 81.097656 48.828125 83.015625 47.542969 C 84.933594 46.28125 86.832031 44.671875 88.757812 42.882812 C 90.714844 41.050781 92.683594 39.183594 94.703125 37.203125 C 96.71875 35.230469 98.808594 33.222656 100.988281 31.203125 C 103.164062 29.179688 105.457031 27.171875 107.914062 25.257812 C 112.789062 21.425781 118.359375 17.925781 124.722656 15.773438 C 127.929688 14.730469 131.199219 14.054688 134.761719 13.863281 L 135.886719 13.828125 L 136.453125 13.8125 L 136.59375 13.808594 L 136.660156 13.804688 C 136.65625 13.804688 136.984375 13.800781 136.882812 13.804688 L 137.21875 13.820312 C 138.101562 13.882812 138.992188 13.910156 139.871094 14.015625 C 140.742188 14.160156 141.621094 14.296875 142.484375 14.46875 C 143.335938 14.703125 144.1875 14.933594 145.03125 15.183594 C 151.734375 17.414062 157.171875 22.445312 160 28.394531 C 160.703125 29.886719 161.296875 31.414062 161.691406 32.980469 C 161.789062 33.371094 161.929688 33.75 161.992188 34.148438 L 162.191406 35.328125 C 162.257812 35.722656 162.320312 36.113281 162.382812 36.503906 C 162.417969 36.917969 162.441406 37.339844 162.464844 37.757812 C 162.503906 38.570312 162.582031 39.496094 162.511719 40.097656 L 162.460938 41.105469 L 162.433594 41.605469 L 162.417969 41.855469 C 162.40625 42.222656 162.410156 41.996094 162.402344 42.097656 L 162.394531 42.167969 L 162.371094 42.3125 C 162.257812 43.066406 162.164062 43.820312 162.019531 44.558594 C 161.835938 45.289062 161.660156 46.019531 161.460938 46.730469 C 160.589844 49.566406 159.238281 52.136719 157.578125 54.324219 C 155.914062 56.507812 153.976562 58.332031 151.914062 59.753906 C 149.84375 61.171875 147.683594 62.253906 145.519531 62.898438 C 144.988281 63.097656 144.445312 63.214844 143.910156 63.339844 C 143.371094 63.457031 142.875 63.613281 142.3125 63.675781 C 141.769531 63.75 141.234375 63.824219 140.707031 63.898438 C 140.195312 63.953125 139.753906 63.941406 139.285156 63.96875 C 135.296875 64.125 131.957031 63.230469 129.4375 62.136719 C 126.90625 61.03125 125.199219 59.722656 124.097656 58.8125 C 123.546875 58.34375 123.148438 57.96875 122.894531 57.703125 C 122.636719 57.441406 122.5 57.308594 122.5 57.308594 " clip-rule="nonzero"/></clipPath><clipPath id="d806e87810"><path d="M 185.683594 28.875 L 91.199219 -32.785156 L 37.566406 49.050781 L 132.050781 110.710938 Z M 185.683594 28.875 " clip-rule="nonzero"/></clipPath><radialGradient gradientTransform="matrix(-0.547911, 0.836027, -0.837807, -0.546747, 123.075326, -3.044405)" gradientUnits="userSpaceOnUse" r="93.89629" cx="0" id="8a025dd621" cy="0" fx="0" fy="0"><stop stop-opacity="1" stop-color="rgb(0.193787%, 67.799377%, 93.699646%)" offset="0"/><stop stop-opacity="1" stop-color="rgb(0.393677%, 67.658997%, 93.513489%)" offset="0.0078125"/><stop stop-opacity="1" stop-color="rgb(0.39978%, 67.50946%, 93.313599%)" offset="0.0117188"/><stop stop-opacity="1" stop-color="rgb(0.39978%, 67.498779%, 93.299866%)" offset="0.015625"/><stop stop-opacity="1" stop-color="rgb(0.59967%, 67.498779%, 93.299866%)" offset="0.0195312"/><stop stop-opacity="1" stop-color="rgb(0.799561%, 67.481995%, 93.299866%)" offset="0.0234375"/><stop stop-opacity="1" stop-color="rgb(0.799561%, 67.282104%, 93.286133%)" offset="0.0273438"/><stop stop-opacity="1" stop-color="rgb(0.80719%, 67.098999%, 93.086243%)" offset="0.03125"/><stop stop-opacity="1" stop-color="rgb(1.00708%, 67.098999%, 92.89856%)" offset="0.0351562"/><stop stop-opacity="1" stop-color="rgb(1.199341%, 66.90979%, 92.89856%)" offset="0.046875"/><stop stop-opacity="1" stop-color="rgb(1.199341%, 66.7099%, 92.89856%)" offset="0.0507812"/><stop stop-opacity="1" stop-color="rgb(1.199341%, 66.699219%, 92.718506%)" offset="0.0546875"/><stop stop-opacity="1" stop-color="rgb(1.373291%, 66.699219%, 92.518616%)" offset="0.0585938"/><stop stop-opacity="1" stop-color="rgb(1.573181%, 66.677856%, 92.498779%)" offset="0.0625"/><stop stop-opacity="1" stop-color="rgb(1.61438%, 66.477966%, 92.498779%)" offset="0.0664062"/><stop stop-opacity="1" stop-color="rgb(1.81427%, 66.299438%, 92.349243%)" offset="0.0703125"/><stop stop-opacity="1" stop-color="rgb(1.998901%, 66.299438%, 92.199707%)" offset="0.0820312"/><stop stop-opacity="1" stop-color="rgb(2.191162%, 66.107178%, 92.199707%)" offset="0.0859375"/><stop stop-opacity="1" stop-color="rgb(2.391052%, 65.907288%, 92.021179%)" offset="0.0898438"/><stop stop-opacity="1" stop-color="rgb(2.415466%, 65.875244%, 91.821289%)" offset="0.101562"/><stop stop-opacity="1" stop-color="rgb(2.566528%, 65.675354%, 91.799927%)" offset="0.105469"/><stop stop-opacity="1" stop-color="rgb(2.703857%, 65.499878%, 91.793823%)" offset="0.117188"/><stop stop-opacity="1" stop-color="rgb(2.903748%, 65.499878%, 91.593933%)" offset="0.121094"/><stop stop-opacity="1" stop-color="rgb(3.09906%, 65.304565%, 91.398621%)" offset="0.125"/><stop stop-opacity="1" stop-color="rgb(3.09906%, 65.103149%, 91.398621%)" offset="0.128906"/><stop stop-opacity="1" stop-color="rgb(3.09906%, 65.098572%, 91.398621%)" offset="0.140625"/><stop stop-opacity="1" stop-color="rgb(3.29895%, 64.898682%, 91.19873%)" offset="0.144531"/><stop stop-opacity="1" stop-color="rgb(3.49884%, 64.698792%, 90.99884%)" offset="0.148438"/><stop stop-opacity="1" stop-color="rgb(3.511047%, 64.698792%, 90.99884%)" offset="0.152344"/><stop stop-opacity="1" stop-color="rgb(3.710938%, 64.698792%, 90.99884%)" offset="0.15625"/><stop stop-opacity="1" stop-color="rgb(3.898621%, 64.69574%, 90.99884%)" offset="0.160156"/><stop stop-opacity="1" stop-color="rgb(3.898621%, 64.497375%, 90.99884%)" offset="0.164062"/><stop stop-opacity="1" stop-color="rgb(4.092407%, 64.300537%, 90.805054%)" offset="0.167969"/><stop stop-opacity="1" stop-color="rgb(4.292297%, 64.299011%, 90.605164%)" offset="0.171875"/><stop stop-opacity="1" stop-color="rgb(4.299927%, 64.123535%, 90.59906%)" offset="0.183594"/><stop stop-opacity="1" stop-color="rgb(4.319763%, 63.923645%, 90.577698%)" offset="0.1875"/><stop stop-opacity="1" stop-color="rgb(4.525757%, 63.893127%, 90.377808%)" offset="0.191406"/><stop stop-opacity="1" stop-color="rgb(4.905701%, 63.693237%, 90.19928%)" offset="0.203125"/><stop stop-opacity="1" stop-color="rgb(5.28717%, 63.499451%, 90.011597%)" offset="0.214844"/><stop stop-opacity="1" stop-color="rgb(5.487061%, 63.499451%, 89.811707%)" offset="0.21875"/><stop stop-opacity="1" stop-color="rgb(5.499268%, 63.320923%, 89.7995%)" offset="0.222656"/><stop stop-opacity="1" stop-color="rgb(5.499268%, 63.121033%, 89.7995%)" offset="0.226562"/><stop stop-opacity="1" stop-color="rgb(5.499268%, 63.09967%, 89.779663%)" offset="0.230469"/><stop stop-opacity="1" stop-color="rgb(5.513%, 63.084412%, 89.579773%)" offset="0.234375"/><stop stop-opacity="1" stop-color="rgb(5.712891%, 62.884521%, 89.399719%)" offset="0.238281"/><stop stop-opacity="1" stop-color="rgb(6.09436%, 62.69989%, 89.399719%)" offset="0.25"/><stop stop-opacity="1" stop-color="rgb(6.29425%, 62.554932%, 89.205933%)" offset="0.253906"/><stop stop-opacity="1" stop-color="rgb(6.298828%, 62.40387%, 89.006042%)" offset="0.261719"/><stop stop-opacity="1" stop-color="rgb(6.396484%, 62.30011%, 88.999939%)" offset="0.269531"/><stop stop-opacity="1" stop-color="rgb(6.596375%, 62.10022%, 88.893127%)" offset="0.273438"/><stop stop-opacity="1" stop-color="rgb(6.800842%, 61.999512%, 88.691711%)" offset="0.28125"/><stop stop-opacity="1" stop-color="rgb(7.000732%, 61.901855%, 88.598633%)" offset="0.289062"/><stop stop-opacity="1" stop-color="rgb(7.191467%, 61.701965%, 88.50708%)" offset="0.296875"/><stop stop-opacity="1" stop-color="rgb(7.391357%, 61.499023%, 88.30719%)" offset="0.304688"/><stop stop-opacity="1" stop-color="rgb(7.580566%, 61.299133%, 88.198853%)" offset="0.3125"/><stop stop-opacity="1" stop-color="rgb(7.730103%, 61.199951%, 88.095093%)" offset="0.320312"/><stop stop-opacity="1" stop-color="rgb(7.798767%, 61.196899%, 87.895203%)" offset="0.328125"/><stop stop-opacity="1" stop-color="rgb(7.798767%, 61.000061%, 87.799072%)" offset="0.332031"/><stop stop-opacity="1" stop-color="rgb(7.798767%, 60.614014%, 87.658691%)" offset="0.335938"/><stop stop-opacity="1" stop-color="rgb(7.981873%, 60.411072%, 87.509155%)" offset="0.34375"/><stop stop-opacity="1" stop-color="rgb(8.280945%, 60.299683%, 87.5%)" offset="0.347656"/><stop stop-opacity="1" stop-color="rgb(8.49762%, 60.099792%, 87.391663%)" offset="0.355469"/><stop stop-opacity="1" stop-color="rgb(8.702087%, 59.999084%, 87.191772%)" offset="0.363281"/><stop stop-opacity="1" stop-color="rgb(8.901978%, 59.901428%, 87.098694%)" offset="0.371094"/><stop stop-opacity="1" stop-color="rgb(8.999634%, 59.701538%, 87.005615%)" offset="0.378906"/><stop stop-opacity="1" stop-color="rgb(9.100342%, 59.498596%, 86.805725%)" offset="0.386719"/><stop stop-opacity="1" stop-color="rgb(9.300232%, 59.298706%, 86.698914%)" offset="0.394531"/><stop stop-opacity="1" stop-color="rgb(9.503174%, 59.095764%, 86.595154%)" offset="0.402344"/><stop stop-opacity="1" stop-color="rgb(9.703064%, 58.80127%, 86.300659%)" offset="0.410156"/><stop stop-opacity="1" stop-color="rgb(9.889221%, 58.505249%, 86.004639%)" offset="0.425781"/><stop stop-opacity="1" stop-color="rgb(10.076904%, 58.399963%, 85.899353%)" offset="0.433594"/><stop stop-opacity="1" stop-color="rgb(10.284424%, 58.399963%, 85.899353%)" offset="0.4375"/><stop stop-opacity="1" stop-color="rgb(10.496521%, 58.293152%, 85.794067%)" offset="0.441406"/><stop stop-opacity="1" stop-color="rgb(10.699463%, 58.093262%, 85.594177%)" offset="0.449219"/><stop stop-opacity="1" stop-color="rgb(10.899353%, 57.902527%, 85.499573%)" offset="0.457031"/><stop stop-opacity="1" stop-color="rgb(10.998535%, 57.702637%, 85.40802%)" offset="0.464844"/><stop stop-opacity="1" stop-color="rgb(11.097717%, 57.524109%, 85.20813%)" offset="0.472656"/><stop stop-opacity="1" stop-color="rgb(11.297607%, 57.272339%, 84.996033%)" offset="0.480469"/><stop stop-opacity="1" stop-color="rgb(11.497498%, 56.996155%, 84.796143%)" offset="0.496094"/><stop stop-opacity="1" stop-color="rgb(11.697388%, 56.716919%, 84.698486%)" offset="0.503906"/><stop stop-opacity="1" stop-color="rgb(11.975098%, 56.517029%, 84.521484%)" offset="0.515625"/><stop stop-opacity="1" stop-color="rgb(12.184143%, 56.486511%, 84.321594%)" offset="0.519531"/><stop stop-opacity="1" stop-color="rgb(12.358093%, 56.286621%, 84.298706%)" offset="0.53125"/><stop stop-opacity="1" stop-color="rgb(12.5%, 56.098938%, 84.295654%)" offset="0.535156"/><stop stop-opacity="1" stop-color="rgb(12.5%, 56.098938%, 84.09729%)" offset="0.539062"/><stop stop-opacity="1" stop-color="rgb(12.5%, 56.098938%, 83.900452%)" offset="0.542969"/><stop stop-opacity="1" stop-color="rgb(12.5%, 55.909729%, 83.898926%)" offset="0.546875"/><stop stop-opacity="1" stop-color="rgb(12.5%, 55.709839%, 83.898926%)" offset="0.550781"/><stop stop-opacity="1" stop-color="rgb(12.678528%, 55.699158%, 83.898926%)" offset="0.554688"/><stop stop-opacity="1" stop-color="rgb(12.878418%, 55.699158%, 83.898926%)" offset="0.558594"/><stop stop-opacity="1" stop-color="rgb(12.919617%, 55.677795%, 83.699036%)" offset="0.5625"/><stop stop-opacity="1" stop-color="rgb(13.119507%, 55.471802%, 83.499146%)" offset="0.566406"/><stop stop-opacity="1" stop-color="rgb(13.299561%, 55.093384%, 83.49762%)" offset="0.578125"/><stop stop-opacity="1" stop-color="rgb(13.299561%, 54.899597%, 83.300781%)" offset="0.582031"/><stop stop-opacity="1" stop-color="rgb(13.299561%, 54.899597%, 83.102417%)" offset="0.585938"/><stop stop-opacity="1" stop-color="rgb(13.487244%, 54.899597%, 83.099365%)" offset="0.589844"/><stop stop-opacity="1" stop-color="rgb(13.687134%, 54.899597%, 83.099365%)" offset="0.59375"/><stop stop-opacity="1" stop-color="rgb(13.699341%, 54.721069%, 83.099365%)" offset="0.597656"/><stop stop-opacity="1" stop-color="rgb(13.722229%, 54.521179%, 83.074951%)" offset="0.601562"/><stop stop-opacity="1" stop-color="rgb(13.922119%, 54.499817%, 82.875061%)" offset="0.605469"/><stop stop-opacity="1" stop-color="rgb(14.099121%, 54.484558%, 82.699585%)" offset="0.609375"/><stop stop-opacity="1" stop-color="rgb(14.099121%, 54.284668%, 82.699585%)" offset="0.613281"/><stop stop-opacity="1" stop-color="rgb(14.103699%, 54.098511%, 82.699585%)" offset="0.617188"/><stop stop-opacity="1" stop-color="rgb(14.303589%, 54.003906%, 82.548523%)" offset="0.621094"/><stop stop-opacity="1" stop-color="rgb(14.588928%, 53.804016%, 82.398987%)" offset="0.632812"/><stop stop-opacity="1" stop-color="rgb(14.788818%, 53.601074%, 82.299805%)" offset="0.640625"/><stop stop-opacity="1" stop-color="rgb(15.005493%, 53.401184%, 82.099915%)" offset="0.648438"/><stop stop-opacity="1" stop-color="rgb(15.205383%, 53.196716%, 81.999207%)" offset="0.65625"/><stop stop-opacity="1" stop-color="rgb(15.299988%, 52.996826%, 81.90155%)" offset="0.664062"/><stop stop-opacity="1" stop-color="rgb(15.391541%, 52.806091%, 81.70166%)" offset="0.671875"/><stop stop-opacity="1" stop-color="rgb(15.591431%, 52.606201%, 81.599426%)" offset="0.679688"/><stop stop-opacity="1" stop-color="rgb(15.80658%, 52.418518%, 81.491089%)" offset="0.6875"/><stop stop-opacity="1" stop-color="rgb(16.00647%, 52.1698%, 81.193542%)" offset="0.695312"/><stop stop-opacity="1" stop-color="rgb(16.192627%, 51.899719%, 80.900574%)" offset="0.710938"/><stop stop-opacity="1" stop-color="rgb(16.392517%, 51.696777%, 80.799866%)" offset="0.71875"/><stop stop-opacity="1" stop-color="rgb(16.607666%, 51.496887%, 80.690002%)" offset="0.726562"/><stop stop-opacity="1" stop-color="rgb(16.807556%, 51.293945%, 80.488586%)" offset="0.734375"/><stop stop-opacity="1" stop-color="rgb(16.998291%, 51.094055%, 80.39856%)" offset="0.742188"/><stop stop-opacity="1" stop-color="rgb(17.198181%, 50.999451%, 80.39856%)" offset="0.75"/><stop stop-opacity="1" stop-color="rgb(17.298889%, 50.813293%, 80.212402%)" offset="0.757812"/><stop stop-opacity="1" stop-color="rgb(17.448425%, 50.590515%, 80.012512%)" offset="0.761719"/><stop stop-opacity="1" stop-color="rgb(17.599487%, 50.376892%, 79.998779%)" offset="0.773438"/><stop stop-opacity="1" stop-color="rgb(17.599487%, 50.19989%, 79.986572%)" offset="0.777344"/><stop stop-opacity="1" stop-color="rgb(17.599487%, 50.19989%, 79.786682%)" offset="0.78125"/><stop stop-opacity="1" stop-color="rgb(17.599487%, 50.195312%, 79.598999%)" offset="0.785156"/><stop stop-opacity="1" stop-color="rgb(17.599487%, 49.996948%, 79.598999%)" offset="0.789062"/><stop stop-opacity="1" stop-color="rgb(17.793274%, 49.80011%, 79.598999%)" offset="0.792969"/><stop stop-opacity="1" stop-color="rgb(17.993164%, 49.798584%, 79.598999%)" offset="0.796875"/><stop stop-opacity="1" stop-color="rgb(17.999268%, 49.798584%, 79.414368%)" offset="0.800781"/><stop stop-opacity="1" stop-color="rgb(17.999268%, 49.61853%, 79.214478%)" offset="0.804688"/><stop stop-opacity="1" stop-color="rgb(18.173218%, 49.41864%, 79.199219%)" offset="0.808594"/><stop stop-opacity="1" stop-color="rgb(18.383789%, 49.388123%, 79.188538%)" offset="0.8125"/><stop stop-opacity="1" stop-color="rgb(18.608093%, 49.188232%, 78.988647%)" offset="0.816406"/><stop stop-opacity="1" stop-color="rgb(18.798828%, 48.997498%, 78.799438%)" offset="0.824219"/><stop stop-opacity="1" stop-color="rgb(18.798828%, 48.802185%, 78.799438%)" offset="0.832031"/><stop stop-opacity="1" stop-color="rgb(18.989563%, 48.602295%, 78.607178%)" offset="0.839844"/><stop stop-opacity="1" stop-color="rgb(19.189453%, 48.497009%, 78.407288%)" offset="0.847656"/><stop stop-opacity="1" stop-color="rgb(19.198608%, 48.297119%, 78.399658%)" offset="0.851562"/><stop stop-opacity="1" stop-color="rgb(19.303894%, 48.094177%, 78.294373%)" offset="0.859375"/><stop stop-opacity="1" stop-color="rgb(19.503784%, 47.894287%, 78.094482%)" offset="0.867188"/><stop stop-opacity="1" stop-color="rgb(19.784546%, 47.659302%, 77.999878%)" offset="0.882812"/><stop stop-opacity="1" stop-color="rgb(19.984436%, 47.509766%, 77.818298%)" offset="0.886719"/><stop stop-opacity="1" stop-color="rgb(19.999695%, 47.499084%, 77.616882%)" offset="0.890625"/><stop stop-opacity="1" stop-color="rgb(20.021057%, 47.476196%, 77.598572%)" offset="0.894531"/><stop stop-opacity="1" stop-color="rgb(20.220947%, 47.273254%, 77.449036%)" offset="0.898438"/><stop stop-opacity="1" stop-color="rgb(20.399475%, 46.896362%, 77.2995%)" offset="0.910156"/><stop stop-opacity="1" stop-color="rgb(20.593262%, 46.699524%, 77.2995%)" offset="0.917969"/><stop stop-opacity="1" stop-color="rgb(20.793152%, 46.508789%, 77.108765%)" offset="0.925781"/><stop stop-opacity="1" stop-color="rgb(20.799255%, 46.289062%, 76.908875%)" offset="0.933594"/><stop stop-opacity="1" stop-color="rgb(20.799255%, 46.078491%, 76.899719%)" offset="0.941406"/><stop stop-opacity="1" stop-color="rgb(20.809937%, 45.899963%, 76.899719%)" offset="0.945312"/><stop stop-opacity="1" stop-color="rgb(21.009827%, 45.892334%, 76.89209%)" offset="0.949219"/><stop stop-opacity="1" stop-color="rgb(21.199036%, 45.692444%, 76.6922%)" offset="0.953125"/><stop stop-opacity="1" stop-color="rgb(21.395874%, 45.498657%, 76.499939%)" offset="0.957031"/><stop stop-opacity="1" stop-color="rgb(21.594238%, 45.307922%, 76.499939%)" offset="0.964844"/><stop stop-opacity="1" stop-color="rgb(21.598816%, 45.108032%, 76.321411%)" offset="0.972656"/><stop stop-opacity="1" stop-color="rgb(21.798706%, 45.08667%, 76.119995%)" offset="0.976562"/><stop stop-opacity="1" stop-color="rgb(21.998596%, 44.88678%, 76.098633%)" offset="0.980469"/><stop stop-opacity="1" stop-color="rgb(21.998596%, 44.699097%, 76.094055%)" offset="0.988281"/><stop stop-opacity="1" stop-color="rgb(21.998596%, 44.699097%, 75.894165%)" offset="0.992188"/><stop stop-opacity="1" stop-color="rgb(21.998596%, 44.699097%, 75.698853%)" offset="1"/></radialGradient></defs><g clip-path="url(#936d49c74d)"><g clip-path="url(#7f42293e75)"><g clip-path="url(#a56b2a48f7)"><g clip-path="url(#a049477183)"><path fill="url(#6aa0b17aa2)" d="M 183.207031 20.320312 L 80.160156 -46.925781 L 18.269531 47.511719 L 121.316406 114.757812 Z M 183.207031 20.320312 " fill-rule="nonzero"/></g></g></g></g><g clip-path="url(#a9db0aa335)"><g clip-path="url(#c8507a7136)"><g clip-path="url(#8708bd874a)"><g clip-path="url(#d806e87810)"><path fill="url(#8a025dd621)" d="M 185.632812 28.84375 L 91.238281 -32.757812 L 37.671875 48.976562 L 132.066406 110.578125 Z M 185.632812 28.84375 " fill-rule="nonzero"/></g></g></g></g><g fill="#ffffff" fill-opacity="1"><g transform="translate(13.557161, 99.372287)"><g><path d="M 17.117188 0.589844 C 24.894531 0.589844 30.9375 -4.140625 32.417969 -11.328125 L 25.484375 -11.328125 C 24.261719 -7.945312 21.132812 -5.789062 17.246094 -5.789062 C 12.214844 -5.789062 8.664062 -9.46875 8.664062 -14.792969 C 8.664062 -20.117188 12.257812 -23.796875 17.285156 -23.796875 C 21.046875 -23.796875 24.132812 -21.765625 25.273438 -18.511719 L 32.207031 -18.511719 C 30.515625 -25.613281 24.597656 -30.175781 17.074219 -30.175781 C 8.113281 -30.175781 1.816406 -23.835938 1.816406 -14.792969 C 1.816406 -5.75 8.113281 0.589844 17.117188 0.589844 Z M 17.117188 0.589844 "/></g></g></g><g fill="#ffffff" fill-opacity="1"><g transform="translate(47.235432, 99.372287)"><g><path d="M 3.210938 0 L 9.636719 0 L 9.636719 -31.277344 L 3.210938 -31.277344 Z M 3.210938 0 "/></g></g></g><g fill="#ffffff" fill-opacity="1"><g transform="translate(59.658712, 99.372287)"><g><path d="M 14.117188 0.589844 C 21.472656 0.589844 26.542969 -4.183594 26.542969 -11.117188 C 26.542969 -18.003906 21.472656 -22.78125 14.117188 -22.78125 C 6.71875 -22.78125 1.648438 -18.003906 1.648438 -11.117188 C 1.648438 -4.183594 6.71875 0.589844 14.117188 0.589844 Z M 7.988281 -11.117188 C 7.988281 -14.75 10.523438 -17.285156 14.117188 -17.285156 C 17.710938 -17.285156 20.203125 -14.75 20.203125 -11.117188 C 20.203125 -7.480469 17.710938 -4.945312 14.117188 -4.945312 C 10.523438 -4.945312 7.988281 -7.480469 7.988281 -11.117188 Z M 7.988281 -11.117188 "/></g></g></g><g fill="#ffffff" fill-opacity="1"><g transform="translate(87.421076, 99.372287)"><g><path d="M 12.046875 0.589844 C 14.960938 0.589844 17.582031 -0.421875 19.359375 -2.492188 L 20.035156 0 L 24.808594 0 L 24.808594 -22.191406 L 18.386719 -22.191406 L 18.386719 -10.609375 C 18.386719 -7.101562 16.484375 -4.945312 13.566406 -4.945312 C 10.863281 -4.945312 9.214844 -6.847656 9.214844 -10.101562 L 9.214844 -22.191406 L 2.789062 -22.191406 L 2.789062 -9.46875 C 2.789062 -3.296875 6.296875 0.589844 12.046875 0.589844 Z M 12.046875 0.589844 "/></g></g></g><g fill="#ffffff" fill-opacity="1"><g transform="translate(115.014424, 99.372287)"><g><path d="M 12.933594 0.589844 C 16.144531 0.589844 18.894531 -0.550781 20.878906 -2.535156 L 21.640625 0 L 26.417969 0 L 26.417969 -31.277344 L 19.992188 -31.277344 L 19.992188 -20.457031 C 18.089844 -21.9375 15.679688 -22.78125 12.933594 -22.78125 C 6.339844 -22.78125 1.648438 -17.921875 1.648438 -11.117188 C 1.648438 -4.226562 6.339844 0.589844 12.933594 0.589844 Z M 7.988281 -11.117188 C 7.988281 -14.707031 10.480469 -17.285156 14.117188 -17.285156 C 17.710938 -17.285156 20.203125 -14.707031 20.203125 -11.117188 C 20.203125 -7.480469 17.710938 -4.945312 14.117188 -4.945312 C 10.480469 -4.945312 7.988281 -7.480469 7.988281 -11.117188 Z M 7.988281 -11.117188 "/></g></g></g><g fill="#ffffff" fill-opacity="1"><g transform="translate(144.213517, 99.372287)"><g><path d="M 3.210938 0 L 9.636719 0 L 9.636719 -22.191406 L 3.210938 -22.191406 Z M 2.28125 -29.375 C 2.28125 -27.007812 3.972656 -25.359375 6.425781 -25.359375 C 8.875 -25.359375 10.566406 -27.007812 10.566406 -29.375 C 10.566406 -31.742188 8.875 -33.390625 6.425781 -33.390625 C 3.972656 -33.390625 2.28125 -31.742188 2.28125 -29.375 Z M 2.28125 -29.375 "/></g></g></g><g fill="#ffffff" fill-opacity="1"><g transform="translate(156.6368, 99.372287)"><g><path d="M 5.410156 -23.964844 L 5.410156 -22.191406 L 0.972656 -22.191406 L 0.972656 -16.949219 L 5.410156 -16.949219 L 5.410156 0 L 11.835938 0 L 11.835938 -16.949219 L 18.34375 -16.949219 L 18.34375 -22.191406 L 11.707031 -22.191406 L 11.707031 -23.625 C 11.707031 -25.949219 12.722656 -27.007812 15.046875 -27.007812 L 18.554688 -27.007812 L 18.554688 -32.078125 L 13.652344 -32.078125 C 8.328125 -32.078125 5.410156 -29.207031 5.410156 -23.964844 Z M 5.410156 -23.964844 "/></g></g></g><g fill="#ffffff" fill-opacity="1"><g transform="translate(175.187264, 99.372287)"><g><path d="M 3.296875 8.453125 L 6.296875 8.453125 C 11.453125 8.453125 13.609375 7.183594 15.425781 2.621094 L 25.316406 -22.191406 L 18.429688 -22.191406 L 15.46875 -14.117188 L 13.441406 -8.453125 L 7.480469 -22.191406 L 0.378906 -22.191406 L 10.355469 -0.71875 L 10.101562 0.0429688 C 9.339844 2.238281 8.453125 2.917969 5.832031 2.917969 L 3.296875 2.917969 Z M 3.296875 8.453125 "/></g></g></g></svg>